<svg xmlns="http://www.w3.org/2000/svg" viewBox="0 0 64 64" role="img" aria-labelledby="title desc">
  <title id="title">ntopng Insights</title>
  <desc id="desc">Dark rounded square with network nodes and orange magnifier</desc>
  <defs>
    <linearGradient id="bg" x1="8" y1="8" x2="56" y2="56" gradientUnits="userSpaceOnUse">
      <stop offset="0" stop-color="#4b5563"/>
      <stop offset="1" stop-color="#1f2937"/>
    </linearGradient>
    <filter id="shadow" x="-20%" y="-20%" width="140%" height="140%">
      <feDropShadow dx="0" dy="1.5" stdDeviation="1.5" flood-color="#000000" flood-opacity="0.25"/>
    </filter>
  </defs>

  <rect x="2" y="2" width="60" height="60" rx="14" fill="url(#bg)"/>

  <g fill="none" stroke="#f8fafc" stroke-width="3.5" stroke-linecap="round" stroke-linejoin="round" filter="url(#shadow)">
    <path d="M14 34 26 34"/>
    <path d="M22 40 31 48"/>
    <path d="M33 18 28 28"/>
    <path d="M36 16 49 16"/>
    <path d="M35 19 46 29"/>
  </g>

  <g fill="#f8fafc">
    <circle cx="13.5" cy="34" r="5.5"/>
    <circle cx="26.5" cy="34" r="5.5"/>
    <circle cx="31.5" cy="48.5" r="5.5"/>
    <circle cx="35" cy="16" r="5.5"/>
    <circle cx="50" cy="16" r="5.5"/>
    <circle cx="48" cy="30" r="5.5"/>
  </g>

  <g transform="translate(25 25)">
    <circle cx="13" cy="13" r="12.5" fill="#f97316"/>
    <circle cx="13" cy="13" r="8.25" fill="none" stroke="#ffffff" stroke-width="4"/>
    <rect x="20.25" y="20" width="11.5" height="5.25" rx="2.6" transform="rotate(45 20.25 20)" fill="#f97316"/>
    <circle cx="13" cy="13" r="2.7" fill="#374151"/>
  </g>
</svg>
